<?xml version="1.0" encoding="UTF-8" standalone="no"?>
<svg
   xmlns:dc="http://purl.org/dc/elements/1.1/"
   xmlns:cc="http://creativecommons.org/ns#"
   xmlns:rdf="http://www.w3.org/1999/02/22-rdf-syntax-ns#"
   xmlns:svg="http://www.w3.org/2000/svg"
   xmlns="http://www.w3.org/2000/svg"
   xmlns:sodipodi="http://sodipodi.sourceforge.net/DTD/sodipodi-0.dtd"
   xmlns:inkscape="http://www.inkscape.org/namespaces/inkscape"
   version="1.1"
   id="Layer_1"
   x="0px"
   y="0px"
   viewBox="0 0 200 100"
   xml:space="preserve"
   sodipodi:docname="The Business Standard.svg"
   width="200"
   height="100"
   inkscape:version="1.0.2-2 (e86c870879, 2021-01-15)"><metadata
   id="metadata232"><rdf:RDF><cc:Work
       rdf:about=""><dc:format>image/svg+xml</dc:format><dc:type
         rdf:resource="http://purl.org/dc/dcmitype/StillImage" /></cc:Work></rdf:RDF></metadata><defs
   id="defs230" /><sodipodi:namedview
   pagecolor="#ffffff"
   bordercolor="#666666"
   borderopacity="1"
   objecttolerance="10"
   gridtolerance="10"
   guidetolerance="10"
   inkscape:pageopacity="0"
   inkscape:pageshadow="2"
   inkscape:window-width="1920"
   inkscape:window-height="991"
   id="namedview228"
   showgrid="false"
   inkscape:zoom="6.075"
   inkscape:cx="100"
   inkscape:cy="50"
   inkscape:window-x="-9"
   inkscape:window-y="-9"
   inkscape:window-maximized="1"
   inkscape:current-layer="Layer_1" />
<style
   type="text/css"
   id="style176">
	.st0{fill:#2B4849;}
	.st1{fill:none;}
</style>
<g
   id="g225">
	<g
   id="g221">
		<g
   id="g219">
			<g
   id="Layer_1-2">
				<g
   id="Layer_1-3">
					<g
   id="_2345817687872">
						<path
   class="st0"
   d="m 56.6,9.9 h -1 c -0.5,0 -1,0.4 -1,1 v 19.5 c 0,0.5 0.4,1 1,1 h 1 v 1 h -9.7 v -1.1 h 1 c 0.5,0 1,-0.4 1,-1 v 0 c 0,-3 0,-5.7 0,-8.7 h -6.7 v 8.7 c 0,0.5 0.4,1 1,1 v 0 h 1 v 1 h -9.7 v -1 h 1 c 0.5,0 1,-0.4 1,-1 v 0 -19.6 c 0,-0.5 -0.4,-1 -1,-1 v 0 h -1 V 8.9 h 9.7 v 1 h -1 c -0.5,0 -1,0.4 -1,1 v 0 8.7 h 6.7 v -8.7 c 0,-0.5 -0.4,-1 -1,-1 v 0 h -1 v -1 h 9.7 z"
   id="path178" />
						<path
   class="st0"
   d="m 20.7,5 h 11.7 v 4.9 h -1 v -2 c 0,-0.5 -0.4,-1 -1,-1 v 0 H 25 c -0.5,0 -1,0.4 -1,1 v 0 22.4 c 0,0.5 0.4,1 0.9,1 v 0 h 1 v 1 h -9.6 v -1 h 1 c 0.5,0 1,-0.4 1,-1 v 0 -22.4 c 0,-0.5 -0.4,-1 -1,-1 v 0 h -5.4 c -0.5,0 -1,0.4 -1,1 v 2 H 10 V 5 Z"
   id="path180" />
						<path
   class="st0"
   d="m 77,26 -1,6.2 H 58.5 v -1 h 1 c 0.5,0 1,-0.4 1,-1 V 10.7 c 0,-0.5 -0.4,-1 -1,-1 h -1 V 8.9 H 76 V 13 h -1 v -1.2 c 0,-0.5 -0.4,-1 -1,-1 h -6.9 c -0.5,0 -0.9,0.4 -0.9,1 v 7.9 h 5.9 c 0.5,0 0.9,-0.4 0.9,-0.9 v -1.2 h 1 v 6.2 h -1 v -1.2 c 0,-0.5 -0.4,-1 -1,-1 h -5.7 v 7.7 c 0,0.5 0.4,1 1,1 h 5.5 c 1.6,0 2.1,-0.7 2.5,-2.1 L 75.9,26 Z"
   id="path182" />
						<path
   class="st0"
   d="m 16.7,74.5 c 0.6,0.5 1.2,1 2,1.4 l 7.5,4.4 c 3.6,1.9 5,6.4 3,10 -0.5,0.9 -1,1.6 -1.7,2.2 -4.2,3.7 -13.2,3.1 -17.4,-0.4 l 1,-6.1 h 1 c 0,4.1 2.6,6.6 6.9,6.7 5,0.1 8.1,-5.1 2.6,-8.2 l -5.7,-3.2 c -3,-1.7 -5.6,-4.1 -5.4,-7.5 0.4,-7.6 12.5,-8.1 17.4,-3.7 L 27.3,74 h -1 c 0,-4.2 -6.4,-5.7 -9.1,-3.9 -1.4,1 -1.6,2.9 -0.6,4.2 -0.1,-0.1 -0.1,0 0.1,0.2 z"
   id="path184" />
						<path
   class="st0"
   d="M 51.5,71.1 V 76 h -1 v -2 c 0,-0.5 -0.4,-1 -1,-1 h -4 c -0.5,0 -1,0.4 -1,1 v 18.5 c 0,0.5 0.4,1 1,1 v 0 h 1 v 1 h -9.7 v -1 h 1 c 0.5,0 1,-0.4 1,-1 v 0 V 74 c 0,-0.5 -0.4,-1 -1,-1 h -4 c -0.5,0 -1,0.4 -1,1 v 2 h -1 v -4.9 c 0,0 19.7,0 19.7,0 z"
   id="path186" />
						<path
   class="st0"
   d="m 52.1,92 8.6,-21.4 h 1.1 L 72,92.2 c 0.5,0.7 1.2,1.2 2.1,1.2 v 1 h -10 v -1 h 0.5 c 0.5,0 0.9,-0.5 0.9,-1 0,-0.1 0,-0.2 -0.1,-0.2 l -1.9,-4 h -7.7 l -1.6,4 c -0.1,0.5 0.1,1 0.6,1.2 0.1,0 0.1,0 0.2,0 h 0.5 v 1 H 50 v -1 c 1,0.1 1.9,-0.6 2.1,-1.4 z M 63,87.1 59.4,79.2 56.3,87.1 Z"
   id="path188" />
						<path
   class="st0"
   d="m 168.5,94.5 h -2.6 c -3.6,0 -5.9,-0.5 -7.9,-3.7 -1,-1.6 -2.9,-6 -3.7,-6.9 -0.4,-0.4 -0.7,-0.5 -1.2,-0.6 v -1 h 1.1 c 5.1,0 5.5,-9.2 0,-9.2 h -3 v 19.5 c 0,0.5 0.4,1 1,1 v 0 h 1 v 1 h -9.7 v -1 h 1 c 0.5,0 1,-0.4 1,-1 v 0 V 73 c 0,-0.5 -0.4,-1 -1,-1 v 0 h -1 v -1 h 12.4 c 4.2,0 8.5,1.5 8.5,6.5 0.1,3 -2,5.6 -4.9,6.2 4.4,1.6 4.9,7.4 7.9,9.4 0.4,0.2 0.9,0.4 1.4,0.2 z"
   id="path190" />
						<path
   class="st0"
   d="m 175.7,73.1 h 1.4 c 4.9,0 6.7,3.5 6.7,9.7 0,6.2 -2,9.7 -6.7,9.7 h -1.4 z M 190,82.7 C 190,75 185.4,71.1 178.3,71.1 H 168 v 1 h 1 c 0.5,0 1,0.4 1,1 v 0 19.4 c 0,0.5 -0.4,1 -1,1 v 0 h -1 v 1 h 10.2 c 7.1,-0.2 11.8,-4 11.8,-11.8 z"
   id="path192" />
						<path
   class="st0"
   d="m 121.7,92 8.6,-21.4 h 1.1 l 10.1,21.6 c 0.5,0.7 1.2,1.2 2.1,1.2 v 1 h -10 v -1 h 0.5 c 0.5,0 0.9,-0.5 0.9,-1 0,-0.1 0,-0.2 -0.1,-0.2 l -1.9,-4 h -7.7 l -1.6,3.9 c -0.1,0.5 0.1,1 0.6,1.2 0.1,0 0.1,0 0.2,0 h 0.5 v 1 h -5.6 v -1 c 1.1,0.2 2,-0.5 2.3,-1.3 z m 10.8,-4.9 -3.6,-7.9 -3.1,7.9 z"
   id="path194" />
						<path
   class="st0"
   d="m 77.6,92.5 c 0,0.5 0.4,1 1,1 v 0 h 1 v 1 h -5.9 v -1 h 1 c 0.5,0 1,-0.4 1,-1 v 0 V 73 c 0,-0.5 -0.4,-1 -1,-1 h -1 v -1 h 6.4 c 0.9,0 1.7,0.5 2.4,1.2 l 9.6,12.4 V 72.8 c 0,-0.5 -0.4,-1 -1,-1 v 0 h -1 v -1 H 96 v 1 h -1 c -0.5,0 -1,0.4 -1,1 v 0 21.4 h -0.7 c -0.9,0 -1.7,-0.5 -2.4,-1.2 L 77.6,75.6 Z"
   id="path196" />
						<path
   class="st0"
   d="m 105.6,73.1 h 1.4 c 4.7,0 6.7,3.5 6.7,9.7 0,6.2 -1.9,9.6 -6.7,9.6 h -1.4 z m 14.3,9.6 c 0,-7.7 -4.6,-11.6 -11.7,-11.6 H 97.9 v 1 h 1 c 0.5,0 1,0.4 1,1 v 0 19.4 c 0,0.5 -0.4,1 -1,1 v 0 h -1 v 1 h 10.2 c 7.1,-0.2 11.8,-4 11.8,-11.8 z"
   id="path198" />
						<path
   class="st0"
   d="M 17.8,61.3 V 38.1 h 2 c 2.2,-0.1 4.2,1.5 4.4,3.7 0,0.1 0,0.2 0,0.4 0.1,2.4 -1.6,4.4 -3.9,4.5 -0.1,0 -0.2,0 -0.4,0 v 1 c 4.2,0 6,2.9 6,6.7 0,3.8 -2,6.7 -6,6.7 H 17.8 Z M 21.7,36.1 H 10 v 1 h 1 c 0.5,0 1,0.4 1,1 v 0 23.5 c 0,0.5 -0.5,0.9 -1,0.9 h -1 v 0.9 h 12.7 c 4.7,0 9.5,-2.5 9.5,-8.7 0,-4.5 -3,-6.6 -6.5,-7.4 2.5,-0.5 4.2,-2.7 4.1,-5.2 0.2,-4.9 -4.3,-6 -8.1,-6 z"
   id="path200" />
						<path
   class="st0"
   d="m 85.9,61.3 c 0,0.5 0.4,1 1,1 h 1 v 1 h -9.7 v -1 h 1 c 0.5,0 1,-0.4 1,-1 V 41.9 c 0,-0.5 -0.4,-1 -1,-1 h -1 V 40 h 9.7 v 1 h -1 c -0.5,0 -1,0.4 -1,1 z"
   id="path202" />
						<path
   class="st0"
   d="m 93.6,61.3 c 0,0.5 0.4,1 1,1 v 0 h 1 v 1 h -5.9 v -1 h 1 c 0.5,0 1,-0.4 1,-1 v 0 -19.4 c 0,-0.5 -0.4,-1 -1,-1 v 0 h -1 V 40 h 6.4 c 0.9,0 1.7,0.5 2.4,1.2 l 9.6,12.4 V 41.9 c 0,-0.5 -0.4,-1 -1,-1 v 0 h -1 V 40 h 5.9 v 1 h -1 c -0.5,0 -1,0.4 -1,1 v 0 21.4 h -0.7 c -0.9,0 -1.7,-0.5 -2.4,-1.2 L 93.6,44.5 Z"
   id="path204" />
						<path
   class="st0"
   d="m 161,45.9 c 0.5,0.5 1.1,0.9 1.7,1.1 l 6.4,3.7 c 3.1,1.9 4.2,5.9 2.5,9 -0.4,0.6 -0.9,1.2 -1.4,1.7 -3.6,3.2 -11,2.7 -14.7,-0.2 l 0.9,-5.4 h 0.9 c 0,3.6 2.2,5.7 6,5.9 4.5,0.1 5.9,-4.4 2,-6.5 l -5.9,-3.5 c -2.5,-1.2 -3.9,-3.9 -3.5,-6.6 1,-6.7 10.6,-7 14.9,-3.2 l -0.5,3.4 h -0.9 c 0,-3.6 -5.4,-4.9 -7.7,-3.1 -1.1,0.9 -1.4,2.4 -0.5,3.5 -0.4,-0.1 -0.2,0 -0.2,0.2 z"
   id="path206" />
						<path
   class="st0"
   d="m 49.8,40 h 5.9 v 1 h -1 c -0.5,0 -1,0.4 -1,1 v 14.1 c 0,4.7 -3.9,7.7 -8.7,7.7 -4.8,0 -8.7,-3 -8.7,-7.7 V 41.9 c 0,-0.5 -0.4,-1 -1,-1 v 0 h -1 V 40 H 44 v 1 h -1 c -0.5,0 -1,0.4 -1,1 v 0 c 0,4.9 0,9.7 0,14.6 0,2.6 2.1,4.9 4.9,4.9 2.6,0 4.9,-2.1 4.9,-4.9 0,-4.9 0,-9.7 0,-14.6 0,-0.5 -0.4,-1 -1,-1 h -1 z"
   id="path208" />
						<path
   class="st0"
   d="m 141.2,45.9 c 0.5,0.5 1.1,0.9 1.7,1.1 l 6.4,3.7 c 3.1,1.9 4.2,5.9 2.5,9 -0.4,0.6 -0.9,1.2 -1.4,1.7 -3.6,3.2 -11,2.7 -14.7,-0.2 l 0.9,-5.4 h 0.9 c 0,3.6 2.2,5.7 6,5.9 4.5,0.1 5.9,-4.4 2,-6.5 l -5.9,-3.5 c -2.5,-1.2 -3.9,-3.9 -3.5,-6.6 1,-6.7 10.6,-7 14.9,-3.2 l -0.5,3.4 h -0.9 c 0,-3.6 -5.4,-4.9 -7.7,-3.1 -1.1,0.9 -1.4,2.4 -0.5,3.5 -0.3,-0.1 -0.3,0 -0.2,0.2 z"
   id="path210" />
						<path
   class="st0"
   d="m 64,45.9 c 0.5,0.5 1.1,0.9 1.7,1.1 l 6.4,3.7 c 3.1,1.9 4.2,5.9 2.5,9 -0.4,0.6 -0.9,1.2 -1.4,1.7 -3.6,3.2 -11,2.7 -14.7,-0.2 l 0.9,-5.4 h 0.9 c 0,3.6 2.2,5.7 6,5.9 4.5,0.1 5.9,-4.4 2,-6.5 l -5.9,-3.5 c -2.5,-1.2 -3.9,-3.9 -3.5,-6.6 1,-6.7 10.6,-7 14.9,-3.2 l -0.5,3.4 h -0.9 c 0,-3.6 -5.4,-4.9 -7.7,-3.1 -1.1,0.9 -1.4,2.4 -0.5,3.5 -0.3,-0.1 -0.3,0 -0.2,0.2 z"
   id="path212" />
						<path
   class="st0"
   d="m 132.4,57.1 -1,6.2 h -17.5 v -1 h 1.1 c 0.5,0 1,-0.4 1,-1 v 0 -19.4 c 0,-0.5 -0.4,-1 -1,-1 v 0 h -1 V 40 h 17.5 v 4.1 h -1 v -1.2 c 0,-0.5 -0.4,-1 -1,-1 v 0 h -6.9 c -0.5,0 -0.9,0.4 -0.9,1 v 7.9 h 5.9 c 0.5,0 0.9,-0.4 0.9,-0.9 v -1.2 h 1 v 6.2 h -1 v -1.2 c 0,-0.5 -0.4,-1 -1,-1 v 0 h -5.9 v 7.7 c 0,0.5 0.4,1 1,1 v 0 h 5.5 c 1.6,0 2.1,-0.7 2.5,-2.1 l 0.7,-2.2 z"
   id="path214" />
					</g>
				</g>
			</g>
		</g>
	</g>
	<rect
   class="st1"
   width="200"
   height="100"
   id="rect223"
   x="0"
   y="0" />
</g>
</svg>
